<svg width="24" height="24" viewBox="0 0 24 24" xmlns="http://www.w3.org/2000/svg">
    <g fill="none" fill-rule="evenodd">
        <path d="M2 2h20v20H2z"/>
        <path d="M12 13.25A5.625 5.625 0 1 0 12 2a5.625 5.625 0 0 0 0 11.25zm0-10a4.38 4.38 0 0 1 4.375 4.375A4.38 4.38 0 0 1 12 12a4.38 4.38 0 0 1-4.375-4.375A4.38 4.38 0 0 1 12 3.25zm3.75 11.25h-7.5A6.25 6.25 0 0 0 2 20.75c0 .69.56 1.25 1.25 1.25h17.5c.69 0 1.25-.56 1.25-1.25a6.25 6.25 0 0 0-6.25-6.25zm-12.5 6.25c0-2.757 2.243-5 5-5h7.5c2.757 0 5 2.243 5 5H3.25z" fill="currentColor"/>
    </g>
</svg>
