<svg width="24" height="24" viewBox="0 0 24 24" xmlns="http://www.w3.org/2000/svg" xmlns:xlink="http://www.w3.org/1999/xlink">
    <defs>
        <path id="a" d="M0 0h17.507v20H0z"/>
        <path id="c" d="M0 0h17.5v20H0z"/>
    </defs>
    <g fill="none" fill-rule="evenodd">
        <g transform="translate(3 2)">
            <mask id="b" fill="#fff">
                <use xlink:href="#a"/>
            </mask>
            <path mask="url(#b)" d="M0 0h17.507v20H0z"/>
        </g>
        <g transform="translate(3.004 2)">
            <mask id="d" fill="#fff">
                <use xlink:href="#c"/>
            </mask>
            <path d="M15 2.5h-1.25V.625a.625.625 0 0 0-1.25 0V2.5H5V.625a.625.625 0 0 0-1.25 0V2.5H2.5A2.5 2.5 0 0 0 0 5v12.5A2.5 2.5 0 0 0 2.5 20H15a2.5 2.5 0 0 0 2.5-2.5V5A2.5 2.5 0 0 0 15 2.5zm1.25 15c0 .69-.56 1.25-1.25 1.25H2.5c-.69 0-1.25-.56-1.25-1.25v-10h15v10zm0-11.25h-15V5c0-.69.56-1.25 1.25-1.25H15c.69 0 1.25.56 1.25 1.25v1.25zM3.75 15H7.5c.69 0 1.25-.56 1.25-1.25V10c0-.69-.56-1.25-1.25-1.25H3.75c-.69 0-1.25.56-1.25 1.25v3.75c0 .69.56 1.25 1.25 1.25zm0-5H7.5v3.75H3.75V10z" fill="currentColor" mask="url(#d)"/>
        </g>
    </g>
</svg>
