<svg width="24" height="24" viewBox="0 0 24 24" xmlns="http://www.w3.org/2000/svg">
    <g fill="none" fill-rule="evenodd">
        <path d="M0 0h24v24H0z"/>
        <path d="M19.5 5h-15A2.5 2.5 0 0 0 2 7.5v10A2.5 2.5 0 0 0 4.5 20h15a2.5 2.5 0 0 0 2.5-2.5v-10A2.5 2.5 0 0 0 19.5 5zm-15 1.25h15c.69 0 1.25.56 1.25 1.25v1.407l-7.625 5.718a1.886 1.886 0 0 1-2.25 0L3.25 8.907V7.5c0-.69.56-1.25 1.25-1.25zM20.75 17.5c0 .69-.56 1.25-1.25 1.25h-15c-.69 0-1.25-.56-1.25-1.25v-7.031l6.875 5.156a3.12 3.12 0 0 0 1.875.621 3.12 3.12 0 0 0 1.875-.621l6.875-5.156V17.5z" fill="currentColor"/>
    </g>
</svg>
