<svg width="24" height="24" viewBox="0 0 24 24" xmlns="http://www.w3.org/2000/svg" xmlns:xlink="http://www.w3.org/1999/xlink">
    <defs>
        <path id="a" d="M0 0h19.977v17.757H0z"/>
    </defs>
    <g fill="none" fill-rule="evenodd">
        <path d="M2 3h20v17.757H2z"/>
        <g transform="translate(2.011 3)">
            <mask id="b" fill="#fff">
                <use xlink:href="#a"/>
            </mask>
            <path d="M19.977 8.879a.553.553 0 0 0-.188-.417L10.356.138a.554.554 0 0 0-.734 0L.188 8.462a.553.553 0 0 0 .369.97c.13 0 .26-.045.365-.138L2.22 8.15v7.943c0 .918.747 1.665 1.665 1.665h2.774c.918 0 1.665-.747 1.665-1.665v-3.884h3.33v3.884c0 .918.746 1.665 1.664 1.665h2.775c.918 0 1.665-.747 1.665-1.665V8.15l1.297 1.145a.555.555 0 0 0 .922-.416zm-3.33-1.666v8.88a.556.556 0 0 1-.554.554h-2.775a.556.556 0 0 1-.555-.555v-3.884a1.11 1.11 0 0 0-1.11-1.11h-3.33c-.61 0-1.109.497-1.109 1.11v3.884a.556.556 0 0 1-.555.555H3.885a.556.556 0 0 1-.555-.555V7.213c0-.013-.007-.024-.008-.036L9.99 1.295l6.666 5.882c0 .012-.007.023-.007.036z" fill="currentColor" mask="url(#b)"/>
        </g>
    </g>
</svg>
